<svg xmlns="http://www.w3.org/2000/svg" viewBox="0 0 512 512"><path fill="#ebb19c" d="M191 388L79 501a37 37 0 01-53 0l-15-15a37 37 0 010-53l113-112c3-3 8-3 11 0l56 56c4 3 4 8 0 11z"/><path fill="#e58d72" d="M191 388L79 501a37 37 0 01-53 0c-16-15-18-17-21-22 15 8 33 6 46-6l112-113c4-3 4-8 0-11l28 28c4 3 4 8 0 11z"/><path fill="#79cb9c" d="M361 373l-71 72a38 38 0 01-54 0L67 276a38 38 0 010-54l72-71c3-3 8-3 11 0l180 180 31 31c3 3 3 8 0 11z"/><path fill="#63ac7d" d="M361 373l-71 72a38 38 0 01-54 0l-30-31c14 5 29 2 40-8l83-74 1-1 31 31c3 3 3 8 0 11z"/><path fill="#f1cc76" d="M457 278l-96 95c-3 3-8 3-11 0L139 162c-3-3-3-8 0-11l95-96c4-3 9-3 12 0l211 211c3 3 3 8 0 12z"/><path fill="#ebb15d" d="M457 278l-96 95c-3 3-8 3-11 0l-34-33 7-2 99-97c2-2 3-5 3-7l32 32c3 3 3 8 0 12z"/><path fill="#e48c9b" d="M466 269l-9 9c-3 3-8 3-11 0L234 66c-3-3-3-8 0-11l9-9a157 157 0 11223 223z"/><path fill="#cc5b6f" d="M466 269l-9 9c-3 3-8 3-11 0l-36-36c3 3 8 3 11 0l9-9c55-56 61-142 16-203 79 56 88 170 20 239z"/></svg>